<mxfile host="app.diagrams.net" modified="2023-06-24T17:43:44.117Z" agent="Mozilla/5.0 (Windows NT 10.0; Win64; x64) AppleWebKit/537.36 (KHTML, like Gecko) Chrome/112.0.0.0 Safari/537.36" etag="y4WHWXZMkyJl8rnndq02" version="21.5.0" type="github">
  <diagram name="Page-1" id="l1ld8g0Ge0DS0LnZMtOq">
    <mxGraphModel dx="3128" dy="1757" grid="1" gridSize="10" guides="1" tooltips="1" connect="1" arrows="1" fold="1" page="0" pageScale="1" pageWidth="850" pageHeight="1100" math="0" shadow="0">
      <root>
        <mxCell id="0" />
        <mxCell id="1" parent="0" />
        <mxCell id="IY9N73KVvrXHZeJEsMXp-48" value="" style="rounded=1;whiteSpace=wrap;html=1;dashed=1;fillColor=none;dashPattern=8 8;arcSize=8;fontColor=#333333;strokeColor=#666666;strokeWidth=2;" vertex="1" parent="1">
          <mxGeometry x="2180" y="990" width="340" height="252" as="geometry" />
        </mxCell>
        <mxCell id="X4S3APis0fRpADvuBOiv-2" value="" style="rounded=1;whiteSpace=wrap;html=1;fillColor=none;arcSize=3;opacity=50;strokeWidth=2;" parent="1" vertex="1">
          <mxGeometry x="170" y="140" width="430" height="810" as="geometry" />
        </mxCell>
        <mxCell id="7EqYqEveABB8CiruSwDJ-31" value="" style="rounded=1;whiteSpace=wrap;html=1;strokeColor=#7F00FF;dashed=1;dashPattern=8 8;" parent="1" vertex="1">
          <mxGeometry x="730" y="460" width="640" height="270" as="geometry" />
        </mxCell>
        <mxCell id="X4S3APis0fRpADvuBOiv-10" value="" style="rounded=1;whiteSpace=wrap;html=1;fillColor=none;arcSize=3;opacity=50;strokeWidth=2;" parent="1" vertex="1">
          <mxGeometry x="720" y="140" width="1410" height="1110" as="geometry" />
        </mxCell>
        <mxCell id="7EqYqEveABB8CiruSwDJ-29" value="" style="rounded=0;whiteSpace=wrap;html=1;strokeColor=#6600CC;" parent="1" vertex="1">
          <mxGeometry x="730" y="170" width="640" height="330" as="geometry" />
        </mxCell>
        <mxCell id="q1YbNQCbZXs1_-pr0APw-14" value="" style="rounded=1;whiteSpace=wrap;html=1;fillColor=none;arcSize=4;dashed=1;strokeWidth=2;strokeColor=#d79b00;" parent="1" vertex="1">
          <mxGeometry x="320" y="50" width="690" height="624" as="geometry" />
        </mxCell>
        <mxCell id="q1YbNQCbZXs1_-pr0APw-70" style="edgeStyle=orthogonalEdgeStyle;rounded=0;orthogonalLoop=1;jettySize=auto;html=1;exitX=1;exitY=0.5;exitDx=0;exitDy=0;strokeColor=#0000FF;entryX=0;entryY=0.5;entryDx=0;entryDy=0;" parent="1" source="q1YbNQCbZXs1_-pr0APw-11" target="q1YbNQCbZXs1_-pr0APw-68" edge="1">
          <mxGeometry relative="1" as="geometry">
            <Array as="points">
              <mxPoint x="670" y="225" />
              <mxPoint x="670" y="697" />
              <mxPoint x="750" y="697" />
            </Array>
          </mxGeometry>
        </mxCell>
        <mxCell id="q1YbNQCbZXs1_-pr0APw-15" value="Consciousness Modifier Stack" style="text;html=1;strokeColor=none;fillColor=none;align=center;verticalAlign=top;whiteSpace=wrap;rounded=0;fontStyle=1;fontSize=16;fontColor=#FF8000;labelBorderColor=none;fontFamily=Tahoma;" parent="1" vertex="1">
          <mxGeometry x="703" y="50" width="339.86" height="31.97" as="geometry" />
        </mxCell>
        <mxCell id="V7F3iEDOQM9Kamh962Xd-2" value="" style="group" parent="1" vertex="1" connectable="0">
          <mxGeometry x="-544" y="1178" width="520" height="510" as="geometry" />
        </mxCell>
        <mxCell id="V7F3iEDOQM9Kamh962Xd-3" value="" style="rounded=1;whiteSpace=wrap;html=1;fillColor=none;arcSize=3;" parent="V7F3iEDOQM9Kamh962Xd-2" vertex="1">
          <mxGeometry y="-6" width="520" height="510" as="geometry" />
        </mxCell>
        <mxCell id="V7F3iEDOQM9Kamh962Xd-4" value="PainSystem" style="text;html=1;strokeColor=none;fillColor=none;align=right;verticalAlign=middle;whiteSpace=wrap;rounded=0;fontStyle=1" parent="V7F3iEDOQM9Kamh962Xd-2" vertex="1">
          <mxGeometry x="452" y="-4" width="60" height="30" as="geometry" />
        </mxCell>
        <mxCell id="q1YbNQCbZXs1_-pr0APw-25" style="edgeStyle=orthogonalEdgeStyle;rounded=0;orthogonalLoop=1;jettySize=auto;html=1;exitX=0.5;exitY=1;exitDx=0;exitDy=0;entryX=0.5;entryY=0;entryDx=0;entryDy=0;" parent="1" source="q1YbNQCbZXs1_-pr0APw-19" target="q1YbNQCbZXs1_-pr0APw-21" edge="1">
          <mxGeometry relative="1" as="geometry" />
        </mxCell>
        <mxCell id="q1YbNQCbZXs1_-pr0APw-26" value="Sum" style="edgeLabel;html=1;align=center;verticalAlign=middle;resizable=0;points=[];labelBorderColor=none;" parent="q1YbNQCbZXs1_-pr0APw-25" vertex="1" connectable="0">
          <mxGeometry x="-0.2886" relative="1" as="geometry">
            <mxPoint as="offset" />
          </mxGeometry>
        </mxCell>
        <mxCell id="q1YbNQCbZXs1_-pr0APw-19" value="&lt;b&gt;Modifiers&lt;/b&gt;&lt;br&gt;{ (owner, type) , ConsciousnessModifier }" style="rounded=0;whiteSpace=wrap;html=1;" parent="1" vertex="1">
          <mxGeometry x="750" y="203" width="240" height="47" as="geometry" />
        </mxCell>
        <mxCell id="q1YbNQCbZXs1_-pr0APw-24" style="edgeStyle=orthogonalEdgeStyle;rounded=0;orthogonalLoop=1;jettySize=auto;html=1;exitX=0.5;exitY=1;exitDx=0;exitDy=0;entryX=0.5;entryY=0;entryDx=0;entryDy=0;" parent="1" source="q1YbNQCbZXs1_-pr0APw-20" target="q1YbNQCbZXs1_-pr0APw-22" edge="1">
          <mxGeometry relative="1" as="geometry" />
        </mxCell>
        <mxCell id="q1YbNQCbZXs1_-pr0APw-27" value="Sum" style="edgeLabel;html=1;align=center;verticalAlign=middle;resizable=0;points=[];labelBorderColor=none;" parent="q1YbNQCbZXs1_-pr0APw-24" vertex="1" connectable="0">
          <mxGeometry x="-0.3585" relative="1" as="geometry">
            <mxPoint as="offset" />
          </mxGeometry>
        </mxCell>
        <mxCell id="q1YbNQCbZXs1_-pr0APw-20" value="&lt;b&gt;Multipliers&lt;/b&gt;&lt;br&gt;{ (owner, type) , ConsciousnessMultiplier }" style="rounded=0;whiteSpace=wrap;html=1;" parent="1" vertex="1">
          <mxGeometry x="750" y="340" width="240" height="40" as="geometry" />
        </mxCell>
        <mxCell id="7EqYqEveABB8CiruSwDJ-4" style="edgeStyle=orthogonalEdgeStyle;rounded=0;orthogonalLoop=1;jettySize=auto;html=1;exitX=1;exitY=0.5;exitDx=0;exitDy=0;entryX=0.5;entryY=0;entryDx=0;entryDy=0;strokeColor=#000000;" parent="1" source="q1YbNQCbZXs1_-pr0APw-21" target="7EqYqEveABB8CiruSwDJ-3" edge="1">
          <mxGeometry relative="1" as="geometry">
            <Array as="points">
              <mxPoint x="1061" y="305" />
            </Array>
          </mxGeometry>
        </mxCell>
        <mxCell id="q1YbNQCbZXs1_-pr0APw-21" value="FixedPoint2 RawConsciousness" style="rounded=0;whiteSpace=wrap;html=1;shadow=0;" parent="1" vertex="1">
          <mxGeometry x="775" y="290" width="190" height="30" as="geometry" />
        </mxCell>
        <mxCell id="7EqYqEveABB8CiruSwDJ-6" style="edgeStyle=orthogonalEdgeStyle;rounded=0;orthogonalLoop=1;jettySize=auto;html=1;exitX=1;exitY=0.5;exitDx=0;exitDy=0;entryX=0.5;entryY=1;entryDx=0;entryDy=0;strokeColor=#000000;" parent="1" source="q1YbNQCbZXs1_-pr0APw-22" target="7EqYqEveABB8CiruSwDJ-3" edge="1">
          <mxGeometry relative="1" as="geometry" />
        </mxCell>
        <mxCell id="q1YbNQCbZXs1_-pr0APw-22" value="FixedPoint2 &lt;b&gt;Multiplier&lt;/b&gt;" style="rounded=0;whiteSpace=wrap;html=1;" parent="1" vertex="1">
          <mxGeometry x="800" y="439" width="140" height="30" as="geometry" />
        </mxCell>
        <mxCell id="7EqYqEveABB8CiruSwDJ-65" style="edgeStyle=orthogonalEdgeStyle;rounded=0;orthogonalLoop=1;jettySize=auto;html=1;exitX=0;exitY=0.5;exitDx=0;exitDy=0;entryX=1;entryY=0.5;entryDx=0;entryDy=0;" parent="1" source="q1YbNQCbZXs1_-pr0APw-30" target="7EqYqEveABB8CiruSwDJ-12" edge="1">
          <mxGeometry relative="1" as="geometry" />
        </mxCell>
        <mxCell id="q1YbNQCbZXs1_-pr0APw-30" value="FixedPoint2 &lt;b&gt;Cap&lt;/b&gt;&lt;br&gt;&lt;font style=&quot;font-size: 10px;&quot;&gt;(max consciousness)&lt;/font&gt;" style="rounded=0;whiteSpace=wrap;html=1;" parent="1" vertex="1">
          <mxGeometry x="1200" y="255" width="150" height="40" as="geometry" />
        </mxCell>
        <mxCell id="q1YbNQCbZXs1_-pr0APw-31" value="FixedPoint2 &lt;b&gt;Threshold&lt;/b&gt;&lt;br&gt;&lt;font style=&quot;font-size: 10px;&quot;&gt;(when entity passes out)&lt;/font&gt;" style="rounded=0;whiteSpace=wrap;html=1;" parent="1" vertex="1">
          <mxGeometry x="1200" y="204" width="150" height="40" as="geometry" />
        </mxCell>
        <mxCell id="q1YbNQCbZXs1_-pr0APw-32" style="edgeStyle=orthogonalEdgeStyle;rounded=0;orthogonalLoop=1;jettySize=auto;html=1;exitX=1;exitY=0.5;exitDx=0;exitDy=0;strokeColor=#0000FF;" parent="1" source="q1YbNQCbZXs1_-pr0APw-9" edge="1">
          <mxGeometry relative="1" as="geometry">
            <Array as="points">
              <mxPoint x="670" y="185" />
              <mxPoint x="670" y="225" />
              <mxPoint x="750" y="225" />
            </Array>
            <mxPoint x="750" y="225" as="targetPoint" />
          </mxGeometry>
        </mxCell>
        <mxCell id="q1YbNQCbZXs1_-pr0APw-35" style="edgeStyle=orthogonalEdgeStyle;rounded=0;orthogonalLoop=1;jettySize=auto;html=1;exitX=1;exitY=0.5;exitDx=0;exitDy=0;" parent="1" source="q1YbNQCbZXs1_-pr0APw-11" edge="1">
          <mxGeometry relative="1" as="geometry">
            <Array as="points">
              <mxPoint x="750" y="225" />
            </Array>
            <mxPoint x="751" y="225" as="targetPoint" />
          </mxGeometry>
        </mxCell>
        <mxCell id="q1YbNQCbZXs1_-pr0APw-36" style="edgeStyle=orthogonalEdgeStyle;rounded=0;orthogonalLoop=1;jettySize=auto;html=1;exitX=1;exitY=0.5;exitDx=0;exitDy=0;strokeColor=#0000FF;" parent="1" source="q1YbNQCbZXs1_-pr0APw-10" edge="1">
          <mxGeometry relative="1" as="geometry">
            <Array as="points">
              <mxPoint x="670" y="265" />
              <mxPoint x="670" y="225" />
              <mxPoint x="750" y="225" />
            </Array>
            <mxPoint x="750" y="225" as="targetPoint" />
          </mxGeometry>
        </mxCell>
        <mxCell id="q1YbNQCbZXs1_-pr0APw-41" style="edgeStyle=orthogonalEdgeStyle;rounded=0;orthogonalLoop=1;jettySize=auto;html=1;exitX=1;exitY=0.5;exitDx=0;exitDy=0;strokeColor=#0000FF;" parent="1" source="q1YbNQCbZXs1_-pr0APw-11" edge="1">
          <mxGeometry relative="1" as="geometry">
            <mxPoint x="858" y="265" as="targetPoint" />
            <Array as="points">
              <mxPoint x="670" y="225" />
              <mxPoint x="670" y="265" />
            </Array>
          </mxGeometry>
        </mxCell>
        <mxCell id="q1YbNQCbZXs1_-pr0APw-60" style="edgeStyle=orthogonalEdgeStyle;rounded=0;orthogonalLoop=1;jettySize=auto;html=1;exitX=1;exitY=0.5;exitDx=0;exitDy=0;endArrow=none;endFill=0;strokeColor=#FF0000;" parent="1" source="q1YbNQCbZXs1_-pr0APw-43" target="q1YbNQCbZXs1_-pr0APw-59" edge="1">
          <mxGeometry relative="1" as="geometry">
            <Array as="points">
              <mxPoint x="665" y="435" />
            </Array>
          </mxGeometry>
        </mxCell>
        <mxCell id="q1YbNQCbZXs1_-pr0APw-61" style="edgeStyle=orthogonalEdgeStyle;rounded=0;orthogonalLoop=1;jettySize=auto;html=1;exitX=1;exitY=0.5;exitDx=0;exitDy=0;endArrow=none;endFill=0;strokeColor=#FF0000;" parent="1" source="q1YbNQCbZXs1_-pr0APw-45" target="q1YbNQCbZXs1_-pr0APw-59" edge="1">
          <mxGeometry relative="1" as="geometry" />
        </mxCell>
        <mxCell id="q1YbNQCbZXs1_-pr0APw-62" style="edgeStyle=orthogonalEdgeStyle;rounded=0;orthogonalLoop=1;jettySize=auto;html=1;exitX=1;exitY=0.5;exitDx=0;exitDy=0;endArrow=none;endFill=0;strokeColor=#FF0000;" parent="1" source="q1YbNQCbZXs1_-pr0APw-44" target="q1YbNQCbZXs1_-pr0APw-59" edge="1">
          <mxGeometry relative="1" as="geometry" />
        </mxCell>
        <mxCell id="q1YbNQCbZXs1_-pr0APw-63" style="edgeStyle=orthogonalEdgeStyle;rounded=0;orthogonalLoop=1;jettySize=auto;html=1;exitX=1;exitY=0.5;exitDx=0;exitDy=0;endArrow=none;endFill=0;strokeColor=#FF0000;" parent="1" source="q1YbNQCbZXs1_-pr0APw-46" target="q1YbNQCbZXs1_-pr0APw-59" edge="1">
          <mxGeometry relative="1" as="geometry" />
        </mxCell>
        <mxCell id="q1YbNQCbZXs1_-pr0APw-65" value="" style="edgeStyle=segmentEdgeStyle;endArrow=classic;html=1;curved=0;rounded=0;endSize=8;startSize=8;entryX=0;entryY=0.5;entryDx=0;entryDy=0;strokeColor=#FF0000;" parent="1" source="q1YbNQCbZXs1_-pr0APw-59" target="q1YbNQCbZXs1_-pr0APw-20" edge="1">
          <mxGeometry width="50" height="50" relative="1" as="geometry">
            <mxPoint x="660" y="410" as="sourcePoint" />
            <mxPoint x="770" y="390" as="targetPoint" />
            <Array as="points">
              <mxPoint x="665" y="360" />
            </Array>
          </mxGeometry>
        </mxCell>
        <mxCell id="q1YbNQCbZXs1_-pr0APw-17" value="Simplifies consicousness external logic and solves the semi-global hell. Operations with corresponding operands are represented as objects and have fixed priorities: first modifiers, than multipliers." style="text;strokeColor=none;align=right;fillColor=none;html=1;verticalAlign=middle;whiteSpace=wrap;rounded=0;" parent="1" vertex="1">
          <mxGeometry x="574" y="81.97" width="420" height="37.55" as="geometry" />
        </mxCell>
        <mxCell id="q1YbNQCbZXs1_-pr0APw-67" value="" style="edgeStyle=segmentEdgeStyle;endArrow=classic;html=1;curved=0;rounded=0;endSize=8;startSize=8;exitX=0.395;exitY=0.403;exitDx=0;exitDy=0;exitPerimeter=0;strokeColor=#FF0000;" parent="1" source="q1YbNQCbZXs1_-pr0APw-59" edge="1">
          <mxGeometry width="50" height="50" relative="1" as="geometry">
            <mxPoint x="700" y="450" as="sourcePoint" />
            <mxPoint x="858" y="398" as="targetPoint" />
            <Array as="points">
              <mxPoint x="665" y="398" />
            </Array>
          </mxGeometry>
        </mxCell>
        <mxCell id="q1YbNQCbZXs1_-pr0APw-59" value="" style="shape=waypoint;sketch=0;fillStyle=solid;size=6;pointerEvents=1;points=[];fillColor=none;resizable=0;rotatable=0;perimeter=centerPerimeter;snapToPoint=1;opacity=0;" parent="1" vertex="1">
          <mxGeometry x="654.9300000000001" y="400" width="20" height="20" as="geometry" />
        </mxCell>
        <mxCell id="X4S3APis0fRpADvuBOiv-11" value="Mob entity" style="text;html=1;strokeColor=none;fillColor=none;align=right;verticalAlign=top;whiteSpace=wrap;rounded=0;fontStyle=1" parent="1" vertex="1">
          <mxGeometry x="2028" y="140" width="82" height="30" as="geometry" />
        </mxCell>
        <mxCell id="q1YbNQCbZXs1_-pr0APw-68" value="ConsciousnessUpdatedEvent" style="rounded=0;whiteSpace=wrap;html=1;fillColor=#dae8fc;strokeColor=#6c8ebf;" parent="1" vertex="1">
          <mxGeometry x="750" y="683" width="210" height="29" as="geometry" />
        </mxCell>
        <mxCell id="q1YbNQCbZXs1_-pr0APw-72" value="" style="endArrow=classic;html=1;rounded=0;edgeStyle=orthogonalEdgeStyle;strokeColor=#FF0000;entryX=-0.001;entryY=0.133;entryDx=0;entryDy=0;entryPerimeter=0;" parent="1" source="q1YbNQCbZXs1_-pr0APw-59" target="q1YbNQCbZXs1_-pr0APw-68" edge="1">
          <mxGeometry width="50" height="50" relative="1" as="geometry">
            <mxPoint x="640" y="640" as="sourcePoint" />
            <mxPoint x="730" y="624" as="targetPoint" />
            <Array as="points">
              <mxPoint x="665" y="687" />
              <mxPoint x="730" y="687" />
            </Array>
          </mxGeometry>
        </mxCell>
        <mxCell id="hQANnmy1hxsniOwchiZT-1" value="" style="endArrow=classic;html=1;rounded=0;exitX=1;exitY=0.5;exitDx=0;exitDy=0;entryX=0;entryY=0.25;entryDx=0;entryDy=0;edgeStyle=orthogonalEdgeStyle;" parent="1" source="q1YbNQCbZXs1_-pr0APw-13" target="q1YbNQCbZXs1_-pr0APw-19" edge="1">
          <mxGeometry width="50" height="50" relative="1" as="geometry">
            <mxPoint x="620" y="380" as="sourcePoint" />
            <mxPoint x="670" y="330" as="targetPoint" />
            <Array as="points">
              <mxPoint x="585" y="345" />
              <mxPoint x="640" y="345" />
              <mxPoint x="640" y="215" />
              <mxPoint x="750" y="215" />
            </Array>
          </mxGeometry>
        </mxCell>
        <mxCell id="hQANnmy1hxsniOwchiZT-2" value="" style="endArrow=classic;html=1;rounded=0;exitX=1;exitY=0.5;exitDx=0;exitDy=0;entryX=0;entryY=0.25;entryDx=0;entryDy=0;edgeStyle=orthogonalEdgeStyle;endFill=1;strokeWidth=1;" parent="1" source="q1YbNQCbZXs1_-pr0APw-47" target="q1YbNQCbZXs1_-pr0APw-20" edge="1">
          <mxGeometry width="50" height="50" relative="1" as="geometry">
            <mxPoint x="630" y="610" as="sourcePoint" />
            <mxPoint x="680" y="560" as="targetPoint" />
            <Array as="points">
              <mxPoint x="650" y="600" />
              <mxPoint x="650" y="350" />
            </Array>
          </mxGeometry>
        </mxCell>
        <mxCell id="X4S3APis0fRpADvuBOiv-3" value="ConsciousnessSystem" style="text;html=1;strokeColor=none;fillColor=none;align=right;verticalAlign=middle;whiteSpace=wrap;rounded=0;fontStyle=1" parent="1" vertex="1">
          <mxGeometry x="532" y="140" width="60" height="30" as="geometry" />
        </mxCell>
        <mxCell id="q1YbNQCbZXs1_-pr0APw-9" value="&lt;b&gt;AddConsciousnessModifier&lt;/b&gt;" style="rounded=0;whiteSpace=wrap;html=1;strokeColor=#0000FF;" parent="1" vertex="1">
          <mxGeometry x="340" y="170" width="245" height="30" as="geometry" />
        </mxCell>
        <mxCell id="q1YbNQCbZXs1_-pr0APw-10" value="&lt;b&gt;TryGetConsciousnessModifier&lt;/b&gt;" style="rounded=0;whiteSpace=wrap;html=1;strokeColor=#0000FF;" parent="1" vertex="1">
          <mxGeometry x="340" y="250" width="245" height="30" as="geometry" />
        </mxCell>
        <mxCell id="q1YbNQCbZXs1_-pr0APw-11" value="&lt;b&gt;RemoveConsciousnessModifier&lt;/b&gt;" style="rounded=0;whiteSpace=wrap;html=1;strokeColor=#0000FF;" parent="1" vertex="1">
          <mxGeometry x="340" y="210" width="245" height="30" as="geometry" />
        </mxCell>
        <mxCell id="7EqYqEveABB8CiruSwDJ-55" style="edgeStyle=orthogonalEdgeStyle;rounded=0;orthogonalLoop=1;jettySize=auto;html=1;exitX=1;exitY=0.5;exitDx=0;exitDy=0;entryX=0.997;entryY=0.363;entryDx=0;entryDy=0;strokeColor=#0000FF;entryPerimeter=0;" parent="1" source="q1YbNQCbZXs1_-pr0APw-12" target="7EqYqEveABB8CiruSwDJ-45" edge="1">
          <mxGeometry relative="1" as="geometry">
            <Array as="points">
              <mxPoint x="670" y="305" />
              <mxPoint x="670" y="738" />
              <mxPoint x="579" y="738" />
            </Array>
          </mxGeometry>
        </mxCell>
        <mxCell id="q1YbNQCbZXs1_-pr0APw-12" value="&lt;b&gt;EditConsciousnessModifier&lt;/b&gt;" style="rounded=0;whiteSpace=wrap;html=1;strokeColor=#0000FF;" parent="1" vertex="1">
          <mxGeometry x="340" y="290" width="245" height="30" as="geometry" />
        </mxCell>
        <mxCell id="q1YbNQCbZXs1_-pr0APw-13" value="&lt;b&gt;UpdateConsciousnessModifierMetaData&lt;/b&gt;&lt;br&gt;&lt;font style=&quot;font-size: 10px;&quot;&gt;(updates owner and data - modifier dictionary key)&lt;/font&gt;" style="rounded=0;whiteSpace=wrap;html=1;" parent="1" vertex="1">
          <mxGeometry x="340" y="330" width="245" height="40" as="geometry" />
        </mxCell>
        <mxCell id="q1YbNQCbZXs1_-pr0APw-43" value="&lt;b&gt;AddConsciousnessMultiplier&lt;/b&gt;" style="rounded=0;whiteSpace=wrap;html=1;strokeColor=#FF0000;" parent="1" vertex="1">
          <mxGeometry x="340" y="420" width="245" height="30" as="geometry" />
        </mxCell>
        <mxCell id="q1YbNQCbZXs1_-pr0APw-44" value="&lt;b&gt;TryGetConsciousnessMultiplier&lt;/b&gt;" style="rounded=0;whiteSpace=wrap;html=1;strokeColor=#FF0000;" parent="1" vertex="1">
          <mxGeometry x="340" y="500" width="245" height="30" as="geometry" />
        </mxCell>
        <mxCell id="q1YbNQCbZXs1_-pr0APw-45" value="&lt;b&gt;RemoveConsciousnessMultiplier&lt;/b&gt;" style="rounded=0;whiteSpace=wrap;html=1;strokeColor=#FF0000;" parent="1" vertex="1">
          <mxGeometry x="340" y="460" width="245" height="30" as="geometry" />
        </mxCell>
        <mxCell id="7EqYqEveABB8CiruSwDJ-54" style="edgeStyle=orthogonalEdgeStyle;rounded=0;orthogonalLoop=1;jettySize=auto;html=1;exitX=1;exitY=0.5;exitDx=0;exitDy=0;entryX=1;entryY=1;entryDx=0;entryDy=0;strokeColor=#FF0000;" parent="1" source="q1YbNQCbZXs1_-pr0APw-46" target="7EqYqEveABB8CiruSwDJ-42" edge="1">
          <mxGeometry relative="1" as="geometry">
            <Array as="points">
              <mxPoint x="665" y="555" />
              <mxPoint x="665" y="727" />
            </Array>
          </mxGeometry>
        </mxCell>
        <mxCell id="q1YbNQCbZXs1_-pr0APw-46" value="&lt;b&gt;EditConsciousnessMultiplier&lt;/b&gt;" style="rounded=0;whiteSpace=wrap;html=1;strokeColor=#FF0000;" parent="1" vertex="1">
          <mxGeometry x="340" y="540" width="245" height="30" as="geometry" />
        </mxCell>
        <mxCell id="q1YbNQCbZXs1_-pr0APw-47" value="&lt;b&gt;UpdateConsciousnessMultiplierMetaData&lt;br&gt;&lt;/b&gt;&lt;font style=&quot;font-size: 10px;&quot;&gt;(updates owner and data - multiplier dictionary key)&lt;/font&gt;&lt;b&gt;&lt;br&gt;&lt;/b&gt;" style="rounded=0;whiteSpace=wrap;html=1;" parent="1" vertex="1">
          <mxGeometry x="340" y="580" width="245" height="40" as="geometry" />
        </mxCell>
        <mxCell id="q1YbNQCbZXs1_-pr0APw-37" style="edgeStyle=orthogonalEdgeStyle;rounded=0;orthogonalLoop=1;jettySize=auto;html=1;exitX=1;exitY=0.5;exitDx=0;exitDy=0;strokeColor=#0000FF;" parent="1" source="q1YbNQCbZXs1_-pr0APw-12" edge="1">
          <mxGeometry relative="1" as="geometry">
            <Array as="points">
              <mxPoint x="670" y="305" />
              <mxPoint x="670" y="225" />
              <mxPoint x="750" y="225" />
            </Array>
            <mxPoint x="751" y="225" as="targetPoint" />
          </mxGeometry>
        </mxCell>
        <mxCell id="7EqYqEveABB8CiruSwDJ-11" value="" style="group" parent="1" vertex="1" connectable="0">
          <mxGeometry x="190" y="687" width="160" height="140" as="geometry" />
        </mxCell>
        <mxCell id="X4S3APis0fRpADvuBOiv-20" value="" style="rounded=0;whiteSpace=wrap;html=1;" parent="7EqYqEveABB8CiruSwDJ-11" vertex="1">
          <mxGeometry width="160" height="130" as="geometry" />
        </mxCell>
        <mxCell id="X4S3APis0fRpADvuBOiv-21" value="IsConscious" style="rounded=0;whiteSpace=wrap;html=1;fontStyle=1;container=0;" parent="7EqYqEveABB8CiruSwDJ-11" vertex="1">
          <mxGeometry width="160" height="20" as="geometry" />
        </mxCell>
        <mxCell id="X4S3APis0fRpADvuBOiv-22" value="Arguments:" style="rounded=0;whiteSpace=wrap;html=1;fontSize=11;" parent="7EqYqEveABB8CiruSwDJ-11" vertex="1">
          <mxGeometry y="20" width="160" height="20" as="geometry" />
        </mxCell>
        <mxCell id="X4S3APis0fRpADvuBOiv-23" value="Returns:" style="rounded=0;whiteSpace=wrap;html=1;fontSize=11;" parent="7EqYqEveABB8CiruSwDJ-11" vertex="1">
          <mxGeometry y="70" width="160" height="20" as="geometry" />
        </mxCell>
        <mxCell id="X4S3APis0fRpADvuBOiv-24" value="bool (component.Consciousness &amp;gt; component.Threshold)" style="rounded=0;whiteSpace=wrap;html=1;" parent="7EqYqEveABB8CiruSwDJ-11" vertex="1">
          <mxGeometry y="90" width="160" height="50" as="geometry" />
        </mxCell>
        <mxCell id="X4S3APis0fRpADvuBOiv-27" value="EntityUid&lt;br&gt;ConsciousnessComponent?" style="rounded=0;whiteSpace=wrap;html=1;" parent="7EqYqEveABB8CiruSwDJ-11" vertex="1">
          <mxGeometry y="40" width="160" height="30" as="geometry" />
        </mxCell>
        <mxCell id="7EqYqEveABB8CiruSwDJ-30" value="&lt;b&gt;&lt;font style=&quot;font-size: 12px;&quot;&gt;ConsiousnessComponent&lt;/font&gt;&lt;/b&gt;" style="rounded=0;whiteSpace=wrap;html=1;fillColor=#e1d5e7;strokeColor=#7F00FF;" parent="1" vertex="1">
          <mxGeometry x="730" y="170" width="640" height="20" as="geometry" />
        </mxCell>
        <mxCell id="7EqYqEveABB8CiruSwDJ-39" value="" style="group" parent="1" vertex="1" connectable="0">
          <mxGeometry x="420" y="687" width="160" height="140" as="geometry" />
        </mxCell>
        <mxCell id="7EqYqEveABB8CiruSwDJ-40" value="" style="rounded=0;whiteSpace=wrap;html=1;" parent="7EqYqEveABB8CiruSwDJ-39" vertex="1">
          <mxGeometry width="160" height="70" as="geometry" />
        </mxCell>
        <mxCell id="7EqYqEveABB8CiruSwDJ-41" value="CheckConscious" style="rounded=0;whiteSpace=wrap;html=1;fontStyle=1;container=0;" parent="7EqYqEveABB8CiruSwDJ-39" vertex="1">
          <mxGeometry width="160" height="20" as="geometry" />
        </mxCell>
        <mxCell id="7EqYqEveABB8CiruSwDJ-42" value="Arguments:" style="rounded=0;whiteSpace=wrap;html=1;fontSize=11;" parent="7EqYqEveABB8CiruSwDJ-39" vertex="1">
          <mxGeometry y="20" width="160" height="20" as="geometry" />
        </mxCell>
        <mxCell id="7EqYqEveABB8CiruSwDJ-45" value="EntityUid&lt;br&gt;ConsciousnessComponent?" style="rounded=0;whiteSpace=wrap;html=1;" parent="7EqYqEveABB8CiruSwDJ-39" vertex="1">
          <mxGeometry y="40" width="160" height="30" as="geometry" />
        </mxCell>
        <mxCell id="7EqYqEveABB8CiruSwDJ-47" style="edgeStyle=orthogonalEdgeStyle;rounded=0;orthogonalLoop=1;jettySize=auto;html=1;exitX=0;exitY=0.75;exitDx=0;exitDy=0;entryX=1;entryY=1;entryDx=0;entryDy=0;" parent="1" source="7EqYqEveABB8CiruSwDJ-42" target="X4S3APis0fRpADvuBOiv-27" edge="1">
          <mxGeometry relative="1" as="geometry">
            <Array as="points">
              <mxPoint x="385" y="722" />
              <mxPoint x="385" y="757" />
            </Array>
          </mxGeometry>
        </mxCell>
        <mxCell id="7EqYqEveABB8CiruSwDJ-48" value="" style="group" parent="1" vertex="1" connectable="0">
          <mxGeometry x="420" y="787" width="160" height="140" as="geometry" />
        </mxCell>
        <mxCell id="7EqYqEveABB8CiruSwDJ-49" value="" style="rounded=0;whiteSpace=wrap;html=1;" parent="7EqYqEveABB8CiruSwDJ-48" vertex="1">
          <mxGeometry width="160" height="100" as="geometry" />
        </mxCell>
        <mxCell id="7EqYqEveABB8CiruSwDJ-50" value="&lt;span style=&quot;font-weight: normal;&quot;&gt;(private)&lt;/span&gt; SetConscious" style="rounded=0;whiteSpace=wrap;html=1;fontStyle=1;container=0;fillColor=#f5f5f5;fontColor=#333333;strokeColor=#666666;" parent="7EqYqEveABB8CiruSwDJ-48" vertex="1">
          <mxGeometry width="160" height="20" as="geometry" />
        </mxCell>
        <mxCell id="7EqYqEveABB8CiruSwDJ-51" value="Arguments:" style="rounded=0;whiteSpace=wrap;html=1;fontSize=11;fillColor=#f5f5f5;fontColor=#333333;strokeColor=#666666;" parent="7EqYqEveABB8CiruSwDJ-48" vertex="1">
          <mxGeometry y="20" width="160" height="20" as="geometry" />
        </mxCell>
        <mxCell id="7EqYqEveABB8CiruSwDJ-52" value="EntityUid&lt;br&gt;ConsciousnessComponent?&lt;br&gt;MobStateComponent?&lt;br&gt;bool IsConscious" style="rounded=0;whiteSpace=wrap;html=1;fillColor=#f5f5f5;fontColor=#333333;strokeColor=#666666;" parent="7EqYqEveABB8CiruSwDJ-48" vertex="1">
          <mxGeometry y="40" width="160" height="70" as="geometry" />
        </mxCell>
        <mxCell id="7EqYqEveABB8CiruSwDJ-79" value="Changes mob state" style="rounded=0;whiteSpace=wrap;html=1;fillColor=#f5f5f5;fontColor=#333333;strokeColor=#666666;" parent="7EqYqEveABB8CiruSwDJ-48" vertex="1">
          <mxGeometry y="110" width="160" height="30" as="geometry" />
        </mxCell>
        <mxCell id="7EqYqEveABB8CiruSwDJ-66" value="" style="group" parent="1" vertex="1" connectable="0">
          <mxGeometry x="1020" y="203" width="170" height="167" as="geometry" />
        </mxCell>
        <mxCell id="7EqYqEveABB8CiruSwDJ-1" value="FixedPoint2 &lt;b&gt;Consciousness&lt;/b&gt;&lt;br&gt;get" style="rounded=0;whiteSpace=wrap;html=1;" parent="7EqYqEveABB8CiruSwDJ-66" vertex="1">
          <mxGeometry width="170" height="40" as="geometry" />
        </mxCell>
        <mxCell id="7EqYqEveABB8CiruSwDJ-58" style="edgeStyle=orthogonalEdgeStyle;rounded=0;orthogonalLoop=1;jettySize=auto;html=1;exitX=0.5;exitY=0;exitDx=0;exitDy=0;entryX=0.5;entryY=1;entryDx=0;entryDy=0;" parent="7EqYqEveABB8CiruSwDJ-66" source="7EqYqEveABB8CiruSwDJ-12" target="7EqYqEveABB8CiruSwDJ-1" edge="1">
          <mxGeometry relative="1" as="geometry" />
        </mxCell>
        <mxCell id="7EqYqEveABB8CiruSwDJ-62" value="" style="rounded=0;whiteSpace=wrap;html=1;fillColor=none;dashed=1;" parent="7EqYqEveABB8CiruSwDJ-66" vertex="1">
          <mxGeometry y="40" width="170" height="127" as="geometry" />
        </mxCell>
        <mxCell id="7EqYqEveABB8CiruSwDJ-12" value="Clamp" style="rounded=1;whiteSpace=wrap;html=1;arcSize=50;" parent="7EqYqEveABB8CiruSwDJ-66" vertex="1">
          <mxGeometry x="45" y="57" width="80" height="30" as="geometry" />
        </mxCell>
        <mxCell id="7EqYqEveABB8CiruSwDJ-61" style="edgeStyle=orthogonalEdgeStyle;rounded=0;orthogonalLoop=1;jettySize=auto;html=1;exitX=0.75;exitY=0;exitDx=0;exitDy=0;entryX=0.35;entryY=1.023;entryDx=0;entryDy=0;entryPerimeter=0;" parent="7EqYqEveABB8CiruSwDJ-66" source="7EqYqEveABB8CiruSwDJ-3" target="7EqYqEveABB8CiruSwDJ-12" edge="1">
          <mxGeometry relative="1" as="geometry" />
        </mxCell>
        <mxCell id="7EqYqEveABB8CiruSwDJ-3" value="Multiply" style="rounded=1;whiteSpace=wrap;html=1;arcSize=50;movable=1;resizable=1;rotatable=1;deletable=1;editable=1;locked=0;connectable=1;" parent="7EqYqEveABB8CiruSwDJ-66" vertex="1">
          <mxGeometry x="11" y="117" width="60" height="30" as="geometry" />
        </mxCell>
        <mxCell id="7EqYqEveABB8CiruSwDJ-70" style="edgeStyle=orthogonalEdgeStyle;rounded=0;orthogonalLoop=1;jettySize=auto;html=1;exitX=1;exitY=0.5;exitDx=0;exitDy=0;entryX=0;entryY=0.25;entryDx=0;entryDy=0;" parent="1" source="7EqYqEveABB8CiruSwDJ-67" target="q1YbNQCbZXs1_-pr0APw-19" edge="1">
          <mxGeometry relative="1" as="geometry">
            <Array as="points">
              <mxPoint x="640" y="395" />
              <mxPoint x="640" y="215" />
              <mxPoint x="750" y="215" />
            </Array>
          </mxGeometry>
        </mxCell>
        <mxCell id="7EqYqEveABB8CiruSwDJ-67" value="&lt;b&gt;GetAllModifiers&lt;/b&gt;" style="rounded=0;whiteSpace=wrap;html=1;" parent="1" vertex="1">
          <mxGeometry x="340" y="380" width="245" height="30" as="geometry" />
        </mxCell>
        <mxCell id="7EqYqEveABB8CiruSwDJ-69" style="edgeStyle=orthogonalEdgeStyle;rounded=0;orthogonalLoop=1;jettySize=auto;html=1;exitX=1;exitY=0.5;exitDx=0;exitDy=0;entryX=0;entryY=0.25;entryDx=0;entryDy=0;" parent="1" source="7EqYqEveABB8CiruSwDJ-68" target="q1YbNQCbZXs1_-pr0APw-20" edge="1">
          <mxGeometry relative="1" as="geometry">
            <Array as="points">
              <mxPoint x="650" y="645" />
              <mxPoint x="650" y="350" />
            </Array>
          </mxGeometry>
        </mxCell>
        <mxCell id="7EqYqEveABB8CiruSwDJ-68" value="&lt;b&gt;GetAllMultipliers&lt;/b&gt;" style="rounded=0;whiteSpace=wrap;html=1;" parent="1" vertex="1">
          <mxGeometry x="340" y="630" width="245" height="30" as="geometry" />
        </mxCell>
        <mxCell id="7EqYqEveABB8CiruSwDJ-75" value="" style="group" parent="1" vertex="1" connectable="0">
          <mxGeometry x="730" y="750" width="270" height="150" as="geometry" />
        </mxCell>
        <mxCell id="7EqYqEveABB8CiruSwDJ-71" value="" style="rounded=0;whiteSpace=wrap;html=1;strokeColor=#6600CC;container=0;fillColor=none;" parent="7EqYqEveABB8CiruSwDJ-75" vertex="1">
          <mxGeometry width="270" height="150" as="geometry" />
        </mxCell>
        <mxCell id="7EqYqEveABB8CiruSwDJ-72" value="&lt;b&gt;&lt;font style=&quot;font-size: 12px;&quot;&gt;PainReceiverComponent&lt;/font&gt;&lt;/b&gt;" style="rounded=0;whiteSpace=wrap;html=1;fillColor=#e1d5e7;strokeColor=#7F00FF;" parent="7EqYqEveABB8CiruSwDJ-75" vertex="1">
          <mxGeometry width="270" height="20" as="geometry" />
        </mxCell>
        <mxCell id="7EqYqEveABB8CiruSwDJ-88" value="" style="group" parent="1" vertex="1" connectable="0">
          <mxGeometry x="170" y="-120" width="364" height="110" as="geometry" />
        </mxCell>
        <mxCell id="7EqYqEveABB8CiruSwDJ-87" value="" style="rounded=1;whiteSpace=wrap;html=1;" parent="7EqYqEveABB8CiruSwDJ-88" vertex="1">
          <mxGeometry width="364" height="110" as="geometry" />
        </mxCell>
        <mxCell id="7EqYqEveABB8CiruSwDJ-85" value="" style="group" parent="7EqYqEveABB8CiruSwDJ-88" vertex="1" connectable="0">
          <mxGeometry x="10" y="10" width="344" height="90" as="geometry" />
        </mxCell>
        <mxCell id="7EqYqEveABB8CiruSwDJ-80" value="&lt;font style=&quot;font-size: 13px;&quot;&gt;Decimal number types with a fixed amount of numbers after point (fixed precision)&lt;/font&gt;" style="text;strokeColor=none;align=center;fillColor=none;html=1;verticalAlign=middle;whiteSpace=wrap;rounded=0;fontSize=13;" parent="7EqYqEveABB8CiruSwDJ-85" vertex="1">
          <mxGeometry x="7" width="330" height="30" as="geometry" />
        </mxCell>
        <mxCell id="7EqYqEveABB8CiruSwDJ-81" value="FixedPoint2" style="text;strokeColor=none;align=center;fillColor=none;html=1;verticalAlign=middle;whiteSpace=wrap;rounded=0;fontStyle=1;fontSize=15;" parent="7EqYqEveABB8CiruSwDJ-85" vertex="1">
          <mxGeometry x="45" y="30" width="60" height="30" as="geometry" />
        </mxCell>
        <mxCell id="7EqYqEveABB8CiruSwDJ-82" value="FixedPoint4" style="text;strokeColor=none;align=right;fillColor=none;html=1;verticalAlign=middle;whiteSpace=wrap;rounded=0;fontStyle=1;fontSize=15;" parent="7EqYqEveABB8CiruSwDJ-85" vertex="1">
          <mxGeometry x="245" y="30" width="60" height="30" as="geometry" />
        </mxCell>
        <mxCell id="7EqYqEveABB8CiruSwDJ-83" value="2 numbers after a point (0.01 is the smallest step)." style="text;strokeColor=none;align=center;fillColor=none;html=1;verticalAlign=middle;whiteSpace=wrap;rounded=0;fontStyle=0;fontSize=12;" parent="7EqYqEveABB8CiruSwDJ-85" vertex="1">
          <mxGeometry y="60" width="150" height="30" as="geometry" />
        </mxCell>
        <mxCell id="7EqYqEveABB8CiruSwDJ-84" value="4 numbers after a point (0.0001 is the smallest step)." style="text;strokeColor=none;align=center;fillColor=none;html=1;verticalAlign=middle;whiteSpace=wrap;rounded=0;fontStyle=0;fontSize=12;" parent="7EqYqEveABB8CiruSwDJ-85" vertex="1">
          <mxGeometry x="184" y="60" width="160" height="30" as="geometry" />
        </mxCell>
        <mxCell id="7EqYqEveABB8CiruSwDJ-78" value="&lt;b&gt;&lt;font style=&quot;font-size: 12px;&quot;&gt;WoundableComponent&lt;/font&gt;&lt;/b&gt;" style="rounded=0;whiteSpace=wrap;html=1;fillColor=#e1d5e7;strokeColor=#7F00FF;" parent="1" vertex="1">
          <mxGeometry x="1390" y="170" width="729" height="20" as="geometry" />
        </mxCell>
        <mxCell id="7EqYqEveABB8CiruSwDJ-77" value="" style="rounded=0;whiteSpace=wrap;html=1;strokeColor=#6600CC;container=0;fillColor=none;" parent="1" vertex="1">
          <mxGeometry x="1390" y="170" width="729" height="270" as="geometry" />
        </mxCell>
        <mxCell id="V7F3iEDOQM9Kamh962Xd-6" value="" style="rounded=1;whiteSpace=wrap;html=1;fillColor=none;arcSize=4;strokeWidth=2;opacity=50;" parent="1" vertex="1">
          <mxGeometry x="2240" y="140" width="880" height="980" as="geometry" />
        </mxCell>
        <mxCell id="V7F3iEDOQM9Kamh962Xd-7" value="WoundSystem" style="text;html=1;strokeColor=none;fillColor=none;align=left;verticalAlign=middle;whiteSpace=wrap;rounded=0;fontStyle=1" parent="1" vertex="1">
          <mxGeometry x="2260.003076923077" y="132.35" width="101.53846153846153" height="57.64705882352941" as="geometry" />
        </mxCell>
        <mxCell id="IY9N73KVvrXHZeJEsMXp-1" style="edgeStyle=orthogonalEdgeStyle;rounded=0;orthogonalLoop=1;jettySize=auto;html=1;exitX=0;exitY=0.75;exitDx=0;exitDy=0;entryX=0;entryY=0.5;entryDx=0;entryDy=0;" edge="1" parent="1" source="7EqYqEveABB8CiruSwDJ-42" target="7EqYqEveABB8CiruSwDJ-52">
          <mxGeometry relative="1" as="geometry">
            <Array as="points">
              <mxPoint x="385" y="722" />
              <mxPoint x="385" y="862" />
            </Array>
          </mxGeometry>
        </mxCell>
        <mxCell id="IY9N73KVvrXHZeJEsMXp-35" value="DamageChangedEvent" style="rounded=0;whiteSpace=wrap;html=1;fillColor=#dae8fc;strokeColor=#6c8ebf;" vertex="1" parent="1">
          <mxGeometry x="1909" y="860" width="210" height="29" as="geometry" />
        </mxCell>
        <mxCell id="IY9N73KVvrXHZeJEsMXp-36" value="" style="group" vertex="1" connectable="0" parent="1">
          <mxGeometry x="1600" y="900" width="540" height="332" as="geometry" />
        </mxCell>
        <mxCell id="IY9N73KVvrXHZeJEsMXp-18" value="" style="rounded=1;whiteSpace=wrap;html=1;arcSize=6;dashed=1;fillColor=none;strokeColor=#00CC00;strokeWidth=2;" vertex="1" parent="IY9N73KVvrXHZeJEsMXp-36">
          <mxGeometry x="255" y="120" width="245" height="176" as="geometry" />
        </mxCell>
        <mxCell id="IY9N73KVvrXHZeJEsMXp-10" value="" style="rounded=1;whiteSpace=wrap;html=1;dashed=1;arcSize=6;fillColor=none;" vertex="1" parent="IY9N73KVvrXHZeJEsMXp-36">
          <mxGeometry y="2" width="540" height="330" as="geometry" />
        </mxCell>
        <mxCell id="IY9N73KVvrXHZeJEsMXp-3" value="" style="rounded=0;whiteSpace=wrap;html=1;strokeColor=#333333;container=0;fillColor=none;" vertex="1" parent="IY9N73KVvrXHZeJEsMXp-36">
          <mxGeometry x="20" y="32" width="500" height="280" as="geometry" />
        </mxCell>
        <mxCell id="IY9N73KVvrXHZeJEsMXp-4" value="&lt;b&gt;&lt;font style=&quot;font-size: 12px;&quot;&gt;BodyComponent&lt;/font&gt;&lt;/b&gt;" style="rounded=0;whiteSpace=wrap;html=1;fillColor=#f5f5f5;strokeColor=#666666;container=0;fontColor=#333333;" vertex="1" parent="IY9N73KVvrXHZeJEsMXp-36">
          <mxGeometry x="20" y="32" width="500" height="20" as="geometry" />
        </mxCell>
        <mxCell id="IY9N73KVvrXHZeJEsMXp-7" value="" style="rounded=1;whiteSpace=wrap;html=1;arcSize=6;dashed=1;fillColor=none;" vertex="1" parent="IY9N73KVvrXHZeJEsMXp-36">
          <mxGeometry x="240" y="59" width="270" height="243" as="geometry" />
        </mxCell>
        <mxCell id="IY9N73KVvrXHZeJEsMXp-5" value="BodyPartSlot Root" style="rounded=0;whiteSpace=wrap;html=1;" vertex="1" parent="IY9N73KVvrXHZeJEsMXp-36">
          <mxGeometry x="250" y="92" width="180" height="25" as="geometry" />
        </mxCell>
        <mxCell id="IY9N73KVvrXHZeJEsMXp-8" value="Body part tree, can be used for dismemberment and damage propagation. Is constructed from prototype." style="text;strokeColor=none;align=center;fillColor=none;html=1;verticalAlign=middle;whiteSpace=wrap;rounded=0;fontSize=10;" vertex="1" parent="IY9N73KVvrXHZeJEsMXp-36">
          <mxGeometry x="240" y="63" width="270" height="20" as="geometry" />
        </mxCell>
        <mxCell id="IY9N73KVvrXHZeJEsMXp-9" value="BodyPart (Torso)" style="rounded=0;whiteSpace=wrap;html=1;fillColor=#d5e8d4;strokeColor=#82b366;" vertex="1" parent="IY9N73KVvrXHZeJEsMXp-36">
          <mxGeometry x="264" y="144" width="100" height="25" as="geometry" />
        </mxCell>
        <mxCell id="IY9N73KVvrXHZeJEsMXp-16" style="edgeStyle=orthogonalEdgeStyle;rounded=0;orthogonalLoop=1;jettySize=auto;html=1;exitX=0;exitY=1;exitDx=0;exitDy=0;entryX=0;entryY=0.5;entryDx=0;entryDy=0;strokeColor=#009900;startArrow=classic;startFill=1;endArrow=none;endFill=0;" edge="1" parent="IY9N73KVvrXHZeJEsMXp-36" source="IY9N73KVvrXHZeJEsMXp-5" target="IY9N73KVvrXHZeJEsMXp-9">
          <mxGeometry relative="1" as="geometry">
            <Array as="points">
              <mxPoint x="250" y="154" />
              <mxPoint x="270" y="154" />
            </Array>
          </mxGeometry>
        </mxCell>
        <mxCell id="IY9N73KVvrXHZeJEsMXp-23" value=".ParentSlot" style="edgeLabel;html=1;align=left;verticalAlign=middle;resizable=0;points=[];fontSize=10;fontColor=#000000;fontStyle=1" vertex="1" connectable="0" parent="IY9N73KVvrXHZeJEsMXp-16">
          <mxGeometry x="-0.0921" y="1" relative="1" as="geometry">
            <mxPoint x="-11" y="-12" as="offset" />
          </mxGeometry>
        </mxCell>
        <mxCell id="IY9N73KVvrXHZeJEsMXp-13" value="Already Implemented/Base" style="text;strokeColor=none;align=left;fillColor=none;html=1;verticalAlign=middle;whiteSpace=wrap;rounded=0;" vertex="1" parent="IY9N73KVvrXHZeJEsMXp-36">
          <mxGeometry x="7" width="278" height="30" as="geometry" />
        </mxCell>
        <mxCell id="IY9N73KVvrXHZeJEsMXp-14" value="SoundSpecifier GibSound" style="rounded=0;whiteSpace=wrap;html=1;" vertex="1" parent="IY9N73KVvrXHZeJEsMXp-36">
          <mxGeometry x="70" y="67" width="150" height="25" as="geometry" />
        </mxCell>
        <mxCell id="IY9N73KVvrXHZeJEsMXp-15" value="Prototype&lt;br&gt;&lt;font style=&quot;font-size: 10px;&quot;&gt;(body part tree preset)&lt;/font&gt;" style="rounded=0;whiteSpace=wrap;html=1;" vertex="1" parent="IY9N73KVvrXHZeJEsMXp-36">
          <mxGeometry x="110" y="99" width="110" height="33" as="geometry" />
        </mxCell>
        <mxCell id="IY9N73KVvrXHZeJEsMXp-19" value="Example" style="text;strokeColor=none;align=center;fillColor=none;html=1;verticalAlign=middle;whiteSpace=wrap;rounded=0;fontColor=#009900;fontStyle=1" vertex="1" parent="IY9N73KVvrXHZeJEsMXp-36">
          <mxGeometry x="440" y="114" width="60" height="30" as="geometry" />
        </mxCell>
        <mxCell id="IY9N73KVvrXHZeJEsMXp-20" value="&lt;p style=&quot;line-height: 100%;&quot;&gt;&lt;font style=&quot;font-size: 10px;&quot;&gt;&lt;b&gt;Organs&lt;/b&gt;&lt;/font&gt;&lt;br&gt;&lt;font style=&quot;font-size: 9px;&quot;&gt;&amp;lt;string, OrganSlot&amp;gt;&lt;/font&gt;&lt;/p&gt;" style="rounded=0;whiteSpace=wrap;html=1;fillColor=#d5e8d4;strokeColor=#82b366;" vertex="1" parent="IY9N73KVvrXHZeJEsMXp-36">
          <mxGeometry x="264" y="199" width="100" height="30" as="geometry" />
        </mxCell>
        <mxCell id="IY9N73KVvrXHZeJEsMXp-22" value="int RequiredLegs&lt;br&gt;&lt;font style=&quot;font-size: 10px;&quot;&gt;used for determining movement speed after limb loss&lt;/font&gt;" style="rounded=0;whiteSpace=wrap;html=1;" vertex="1" parent="IY9N73KVvrXHZeJEsMXp-36">
          <mxGeometry x="30" y="142" width="190" height="50" as="geometry" />
        </mxCell>
        <mxCell id="IY9N73KVvrXHZeJEsMXp-24" value="&lt;p style=&quot;line-height: 100%;&quot;&gt;&lt;font style=&quot;font-size: 10px;&quot;&gt;&lt;b&gt;Children&lt;/b&gt;&lt;/font&gt;&lt;br&gt;&lt;font style=&quot;font-size: 9px;&quot;&gt;&amp;lt;string, BodyPartSlot&amp;gt;&lt;/font&gt;&lt;/p&gt;" style="rounded=0;whiteSpace=wrap;html=1;fillColor=#d5e8d4;strokeColor=#82b366;" vertex="1" parent="IY9N73KVvrXHZeJEsMXp-36">
          <mxGeometry x="264" y="169" width="100" height="30" as="geometry" />
        </mxCell>
        <mxCell id="IY9N73KVvrXHZeJEsMXp-25" value="BodyPart (Groin)" style="rounded=0;whiteSpace=wrap;html=1;fillColor=#d5e8d4;strokeColor=#82b366;" vertex="1" parent="IY9N73KVvrXHZeJEsMXp-36">
          <mxGeometry x="385" y="154.5" width="100" height="25" as="geometry" />
        </mxCell>
        <mxCell id="IY9N73KVvrXHZeJEsMXp-29" style="edgeStyle=orthogonalEdgeStyle;rounded=0;orthogonalLoop=1;jettySize=auto;html=1;exitX=1;exitY=0.5;exitDx=0;exitDy=0;entryX=0;entryY=0.5;entryDx=0;entryDy=0;fillColor=#d5e8d4;strokeColor=#82b366;" edge="1" parent="IY9N73KVvrXHZeJEsMXp-36" source="IY9N73KVvrXHZeJEsMXp-24" target="IY9N73KVvrXHZeJEsMXp-25">
          <mxGeometry relative="1" as="geometry">
            <Array as="points">
              <mxPoint x="370" y="184" />
              <mxPoint x="370" y="167" />
            </Array>
          </mxGeometry>
        </mxCell>
        <mxCell id="IY9N73KVvrXHZeJEsMXp-26" value="BodyPart (LeftArm)" style="rounded=0;whiteSpace=wrap;html=1;fillColor=#d5e8d4;strokeColor=#82b366;" vertex="1" parent="IY9N73KVvrXHZeJEsMXp-36">
          <mxGeometry x="385" y="182" width="110" height="25" as="geometry" />
        </mxCell>
        <mxCell id="IY9N73KVvrXHZeJEsMXp-30" style="edgeStyle=orthogonalEdgeStyle;rounded=0;orthogonalLoop=1;jettySize=auto;html=1;exitX=1;exitY=0.5;exitDx=0;exitDy=0;entryX=0;entryY=0.5;entryDx=0;entryDy=0;fillColor=#d5e8d4;strokeColor=#82b366;" edge="1" parent="IY9N73KVvrXHZeJEsMXp-36" source="IY9N73KVvrXHZeJEsMXp-24" target="IY9N73KVvrXHZeJEsMXp-26">
          <mxGeometry relative="1" as="geometry">
            <Array as="points">
              <mxPoint x="370" y="184" />
              <mxPoint x="370" y="194" />
              <mxPoint x="385" y="194" />
            </Array>
          </mxGeometry>
        </mxCell>
        <mxCell id="IY9N73KVvrXHZeJEsMXp-31" value="Heart" style="rounded=0;whiteSpace=wrap;html=1;fillColor=#d5e8d4;strokeColor=#82b366;" vertex="1" parent="IY9N73KVvrXHZeJEsMXp-36">
          <mxGeometry x="385" y="212" width="55" height="25" as="geometry" />
        </mxCell>
        <mxCell id="IY9N73KVvrXHZeJEsMXp-32" style="edgeStyle=orthogonalEdgeStyle;rounded=0;orthogonalLoop=1;jettySize=auto;html=1;exitX=1;exitY=0.5;exitDx=0;exitDy=0;entryX=0;entryY=0.5;entryDx=0;entryDy=0;fillColor=#d5e8d4;strokeColor=#82b366;" edge="1" parent="IY9N73KVvrXHZeJEsMXp-36" source="IY9N73KVvrXHZeJEsMXp-20" target="IY9N73KVvrXHZeJEsMXp-31">
          <mxGeometry relative="1" as="geometry">
            <Array as="points">
              <mxPoint x="364" y="224" />
              <mxPoint x="385" y="224" />
            </Array>
          </mxGeometry>
        </mxCell>
        <mxCell id="IY9N73KVvrXHZeJEsMXp-33" value="&lt;p style=&quot;line-height: 100%;&quot;&gt;&lt;span style=&quot;font-size: 10px;&quot;&gt;&lt;b&gt;PartType: &lt;/b&gt;Torso&lt;br&gt;&lt;/span&gt;&lt;font style=&quot;font-size: 9px;&quot;&gt;BodyPartType&lt;/font&gt;&lt;/p&gt;" style="rounded=0;whiteSpace=wrap;html=1;fillColor=#d5e8d4;strokeColor=#82b366;" vertex="1" parent="IY9N73KVvrXHZeJEsMXp-36">
          <mxGeometry x="264" y="229" width="100" height="30" as="geometry" />
        </mxCell>
        <mxCell id="IY9N73KVvrXHZeJEsMXp-34" value="&lt;p style=&quot;line-height: 80%;&quot;&gt;&lt;span style=&quot;font-size: 10px;&quot;&gt;&lt;b&gt;IsVital: &lt;/b&gt;true&lt;br&gt;&lt;b&gt;(to be replaced by organ logic)&lt;/b&gt;&lt;br&gt;&lt;/span&gt;&lt;/p&gt;" style="rounded=0;whiteSpace=wrap;html=1;fillColor=#ffe6cc;strokeColor=#d79b00;horizontal=1;spacing=0;" vertex="1" parent="IY9N73KVvrXHZeJEsMXp-36">
          <mxGeometry x="264" y="259" width="100" height="31" as="geometry" />
        </mxCell>
        <mxCell id="IY9N73KVvrXHZeJEsMXp-43" style="edgeStyle=orthogonalEdgeStyle;rounded=0;orthogonalLoop=1;jettySize=auto;html=1;exitX=0.5;exitY=1;exitDx=0;exitDy=0;entryX=0;entryY=0.5;entryDx=0;entryDy=0;" edge="1" parent="1" source="IY9N73KVvrXHZeJEsMXp-38" target="IY9N73KVvrXHZeJEsMXp-42">
          <mxGeometry relative="1" as="geometry">
            <Array as="points">
              <mxPoint x="2345" y="1073" />
              <mxPoint x="2220" y="1073" />
              <mxPoint x="2220" y="1188" />
              <mxPoint x="2233" y="1188" />
            </Array>
          </mxGeometry>
        </mxCell>
        <mxCell id="IY9N73KVvrXHZeJEsMXp-44" value="Pick Random" style="edgeLabel;html=1;align=center;verticalAlign=middle;resizable=0;points=[];" vertex="1" connectable="0" parent="IY9N73KVvrXHZeJEsMXp-43">
          <mxGeometry x="0.7335" relative="1" as="geometry">
            <mxPoint y="-29" as="offset" />
          </mxGeometry>
        </mxCell>
        <mxCell id="IY9N73KVvrXHZeJEsMXp-102" style="edgeStyle=orthogonalEdgeStyle;rounded=0;orthogonalLoop=1;jettySize=auto;html=1;exitX=0;exitY=0.75;exitDx=0;exitDy=0;entryX=0;entryY=0.5;entryDx=0;entryDy=0;" edge="1" parent="1" source="IY9N73KVvrXHZeJEsMXp-38" target="IY9N73KVvrXHZeJEsMXp-98">
          <mxGeometry relative="1" as="geometry">
            <mxPoint x="2230" y="600" as="targetPoint" />
            <Array as="points">
              <mxPoint x="2250" y="1073" />
              <mxPoint x="2200" y="1073" />
              <mxPoint x="2200" y="505" />
            </Array>
          </mxGeometry>
        </mxCell>
        <mxCell id="IY9N73KVvrXHZeJEsMXp-38" value="OnBodyDamaged" style="rounded=0;whiteSpace=wrap;html=1;" vertex="1" parent="1">
          <mxGeometry x="2250" y="1050" width="190" height="33" as="geometry" />
        </mxCell>
        <mxCell id="V7F3iEDOQM9Kamh962Xd-9" value="" style="rounded=1;whiteSpace=wrap;html=1;fillColor=none;arcSize=20;strokeColor=#666666;strokeWidth=2;opacity=50;fontColor=#333333;" parent="1" vertex="1">
          <mxGeometry x="2210" y="1151" width="290" height="70" as="geometry" />
        </mxCell>
        <mxCell id="V7F3iEDOQM9Kamh962Xd-10" value="Implemented / BodySystem" style="text;html=1;strokeColor=none;fillColor=none;align=right;verticalAlign=middle;whiteSpace=wrap;rounded=0;fontStyle=1" parent="1" vertex="1">
          <mxGeometry x="2270" y="1146" width="221" height="30" as="geometry" />
        </mxCell>
        <mxCell id="IY9N73KVvrXHZeJEsMXp-40" value="" style="rounded=1;whiteSpace=wrap;html=1;fillColor=none;arcSize=3;strokeColor=#666666;strokeWidth=2;opacity=50;fontColor=#333333;" vertex="1" parent="1">
          <mxGeometry x="1494.5" y="1730" width="520" height="510" as="geometry" />
        </mxCell>
        <mxCell id="IY9N73KVvrXHZeJEsMXp-41" value="TreatmentSystem" style="text;html=1;strokeColor=none;fillColor=none;align=right;verticalAlign=middle;whiteSpace=wrap;rounded=0;fontStyle=1" vertex="1" parent="1">
          <mxGeometry x="1946.5" y="1730" width="60" height="30" as="geometry" />
        </mxCell>
        <mxCell id="IY9N73KVvrXHZeJEsMXp-42" value="GetBodyChildren" style="rounded=0;whiteSpace=wrap;html=1;" vertex="1" parent="1">
          <mxGeometry x="2233" y="1171" width="110" height="33" as="geometry" />
        </mxCell>
        <mxCell id="IY9N73KVvrXHZeJEsMXp-50" value="Placeholder. Used until part targeting is implemented.&lt;br style=&quot;font-size: 12px;&quot;&gt;Applies incoming damage as a trauma to a random part." style="edgeLabel;html=1;align=center;verticalAlign=middle;resizable=0;points=[];fontSize=12;fontStyle=1;fontColor=#8F8F8F;" vertex="1" connectable="0" parent="1">
          <mxGeometry x="2349" y="1014" as="geometry" />
        </mxCell>
        <mxCell id="IY9N73KVvrXHZeJEsMXp-39" style="edgeStyle=orthogonalEdgeStyle;rounded=0;orthogonalLoop=1;jettySize=auto;html=1;exitX=1;exitY=0.5;exitDx=0;exitDy=0;entryX=0;entryY=0.25;entryDx=0;entryDy=0;fillColor=#dae8fc;strokeColor=#6c8ebf;" edge="1" parent="1" target="IY9N73KVvrXHZeJEsMXp-38">
          <mxGeometry relative="1" as="geometry">
            <mxPoint x="2119" y="868.5" as="sourcePoint" />
            <mxPoint x="2250" y="877.5" as="targetPoint" />
            <Array as="points">
              <mxPoint x="2119" y="877" />
              <mxPoint x="2160" y="877" />
              <mxPoint x="2160" y="1058" />
            </Array>
          </mxGeometry>
        </mxCell>
        <mxCell id="IY9N73KVvrXHZeJEsMXp-51" value="&lt;b&gt;&lt;font style=&quot;font-size: 14px;&quot;&gt;Update (float frameTime)&lt;/font&gt;&lt;/b&gt;" style="rounded=0;whiteSpace=wrap;html=1;" vertex="1" parent="1">
          <mxGeometry x="2260" y="181" width="180" height="29" as="geometry" />
        </mxCell>
        <mxCell id="IY9N73KVvrXHZeJEsMXp-52" value="" style="endArrow=classic;html=1;rounded=0;entryX=0;entryY=0.5;entryDx=0;entryDy=0;edgeStyle=orthogonalEdgeStyle;exitX=0.5;exitY=1;exitDx=0;exitDy=0;" edge="1" parent="1" source="IY9N73KVvrXHZeJEsMXp-53" target="IY9N73KVvrXHZeJEsMXp-51">
          <mxGeometry width="50" height="50" relative="1" as="geometry">
            <mxPoint x="2200" as="sourcePoint" />
            <mxPoint x="2240" y="70" as="targetPoint" />
            <Array as="points">
              <mxPoint x="2220" y="132" />
              <mxPoint x="2220" y="196" />
            </Array>
          </mxGeometry>
        </mxCell>
        <mxCell id="IY9N73KVvrXHZeJEsMXp-53" value="System Manager" style="rounded=0;whiteSpace=wrap;html=1;fillColor=#f5f5f5;fontColor=#333333;strokeColor=#666666;" vertex="1" parent="1">
          <mxGeometry x="2150" y="92.35" width="120" height="40" as="geometry" />
        </mxCell>
        <mxCell id="IY9N73KVvrXHZeJEsMXp-54" value="" style="rounded=0;whiteSpace=wrap;html=1;fillColor=none;dashed=1;dashPattern=8 8;" vertex="1" parent="1">
          <mxGeometry x="2250" y="590" width="340" height="340" as="geometry" />
        </mxCell>
        <mxCell id="IY9N73KVvrXHZeJEsMXp-55" value="WoundSystem.Healing" style="text;html=1;strokeColor=none;fillColor=none;align=left;verticalAlign=middle;whiteSpace=wrap;rounded=0;fontStyle=1" vertex="1" parent="1">
          <mxGeometry x="2252" y="590" width="101.54" height="20" as="geometry" />
        </mxCell>
        <mxCell id="IY9N73KVvrXHZeJEsMXp-62" style="edgeStyle=orthogonalEdgeStyle;rounded=0;orthogonalLoop=1;jettySize=auto;html=1;exitX=0.5;exitY=0;exitDx=0;exitDy=0;entryX=0.5;entryY=1;entryDx=0;entryDy=0;" edge="1" parent="1" source="IY9N73KVvrXHZeJEsMXp-60" target="IY9N73KVvrXHZeJEsMXp-61">
          <mxGeometry relative="1" as="geometry" />
        </mxCell>
        <mxCell id="IY9N73KVvrXHZeJEsMXp-66" style="edgeStyle=orthogonalEdgeStyle;rounded=0;orthogonalLoop=1;jettySize=auto;html=1;exitX=0;exitY=0.5;exitDx=0;exitDy=0;entryX=0;entryY=0.5;entryDx=0;entryDy=0;" edge="1" parent="1" source="IY9N73KVvrXHZeJEsMXp-60" target="IY9N73KVvrXHZeJEsMXp-65">
          <mxGeometry relative="1" as="geometry">
            <Array as="points">
              <mxPoint x="2210" y="675" />
              <mxPoint x="2210" y="555" />
            </Array>
          </mxGeometry>
        </mxCell>
        <mxCell id="IY9N73KVvrXHZeJEsMXp-60" value="HealAllWounds" style="rounded=0;whiteSpace=wrap;html=1;" vertex="1" parent="1">
          <mxGeometry x="2266" y="660" width="100" height="30" as="geometry" />
        </mxCell>
        <mxCell id="IY9N73KVvrXHZeJEsMXp-61" value="FullyHealWound" style="rounded=0;whiteSpace=wrap;html=1;" vertex="1" parent="1">
          <mxGeometry x="2266" y="610" width="100" height="30" as="geometry" />
        </mxCell>
        <mxCell id="IY9N73KVvrXHZeJEsMXp-63" value="" style="rounded=0;whiteSpace=wrap;html=1;fillColor=none;dashed=1;dashPattern=8 8;" vertex="1" parent="1">
          <mxGeometry x="2250" y="220" width="450" height="360" as="geometry" />
        </mxCell>
        <mxCell id="IY9N73KVvrXHZeJEsMXp-64" value="WoundSystem.Wounding" style="text;html=1;strokeColor=none;fillColor=none;align=left;verticalAlign=middle;whiteSpace=wrap;rounded=0;fontStyle=1" vertex="1" parent="1">
          <mxGeometry x="2252" y="219" width="101.54" height="20" as="geometry" />
        </mxCell>
        <mxCell id="IY9N73KVvrXHZeJEsMXp-65" value="GetAllWounds" style="rounded=0;whiteSpace=wrap;html=1;" vertex="1" parent="1">
          <mxGeometry x="2266.54" y="540" width="100" height="30" as="geometry" />
        </mxCell>
        <mxCell id="IY9N73KVvrXHZeJEsMXp-79" style="edgeStyle=orthogonalEdgeStyle;rounded=0;orthogonalLoop=1;jettySize=auto;html=1;exitX=1;exitY=0.5;exitDx=0;exitDy=0;entryX=0;entryY=0.5;entryDx=0;entryDy=0;" edge="1" parent="1" source="IY9N73KVvrXHZeJEsMXp-68" target="IY9N73KVvrXHZeJEsMXp-74">
          <mxGeometry relative="1" as="geometry">
            <Array as="points">
              <mxPoint x="2460" y="255" />
              <mxPoint x="2460" y="196" />
            </Array>
          </mxGeometry>
        </mxCell>
        <mxCell id="IY9N73KVvrXHZeJEsMXp-80" style="edgeStyle=orthogonalEdgeStyle;rounded=0;orthogonalLoop=1;jettySize=auto;html=1;exitX=1;exitY=0.5;exitDx=0;exitDy=0;entryX=0.334;entryY=1.018;entryDx=0;entryDy=0;entryPerimeter=0;" edge="1" parent="1" source="IY9N73KVvrXHZeJEsMXp-68" target="IY9N73KVvrXHZeJEsMXp-77">
          <mxGeometry relative="1" as="geometry" />
        </mxCell>
        <mxCell id="IY9N73KVvrXHZeJEsMXp-85" style="edgeStyle=orthogonalEdgeStyle;rounded=0;orthogonalLoop=1;jettySize=auto;html=1;exitX=1;exitY=0.5;exitDx=0;exitDy=0;entryX=0;entryY=0.5;entryDx=0;entryDy=0;" edge="1" parent="1" source="IY9N73KVvrXHZeJEsMXp-68" target="IY9N73KVvrXHZeJEsMXp-84">
          <mxGeometry relative="1" as="geometry">
            <Array as="points">
              <mxPoint x="2480" y="255" />
            </Array>
          </mxGeometry>
        </mxCell>
        <mxCell id="IY9N73KVvrXHZeJEsMXp-68" value="bool &lt;b&gt;AddWound&lt;/b&gt;" style="rounded=0;whiteSpace=wrap;html=1;" vertex="1" parent="1">
          <mxGeometry x="2260.54" y="240" width="119.46" height="30" as="geometry" />
        </mxCell>
        <mxCell id="IY9N73KVvrXHZeJEsMXp-81" style="edgeStyle=orthogonalEdgeStyle;rounded=0;orthogonalLoop=1;jettySize=auto;html=1;exitX=1;exitY=0.5;exitDx=0;exitDy=0;entryX=0.336;entryY=1.026;entryDx=0;entryDy=0;entryPerimeter=0;" edge="1" parent="1" source="IY9N73KVvrXHZeJEsMXp-69" target="IY9N73KVvrXHZeJEsMXp-77">
          <mxGeometry relative="1" as="geometry">
            <Array as="points">
              <mxPoint x="2460" y="295" />
              <mxPoint x="2460" y="123" />
            </Array>
          </mxGeometry>
        </mxCell>
        <mxCell id="IY9N73KVvrXHZeJEsMXp-96" style="edgeStyle=orthogonalEdgeStyle;rounded=0;orthogonalLoop=1;jettySize=auto;html=1;exitX=0.5;exitY=1;exitDx=0;exitDy=0;entryX=0.5;entryY=0;entryDx=0;entryDy=0;" edge="1" parent="1">
          <mxGeometry relative="1" as="geometry">
            <mxPoint x="2310.9799999999996" y="305" as="sourcePoint" />
            <mxPoint x="2320.9799999999996" y="320" as="targetPoint" />
            <Array as="points">
              <mxPoint x="2320.71" y="305" />
            </Array>
          </mxGeometry>
        </mxCell>
        <mxCell id="IY9N73KVvrXHZeJEsMXp-69" value="bool &lt;b&gt;RemoveWound&lt;/b&gt;" style="rounded=0;whiteSpace=wrap;html=1;" vertex="1" parent="1">
          <mxGeometry x="2260.54" y="275" width="119.46" height="30" as="geometry" />
        </mxCell>
        <mxCell id="IY9N73KVvrXHZeJEsMXp-70" value="&lt;b&gt;UpdateWoundSeverity&lt;/b&gt;" style="rounded=0;whiteSpace=wrap;html=1;" vertex="1" parent="1">
          <mxGeometry x="2260.54" y="320" width="139.46" height="30" as="geometry" />
        </mxCell>
        <mxCell id="IY9N73KVvrXHZeJEsMXp-93" style="edgeStyle=orthogonalEdgeStyle;rounded=0;orthogonalLoop=1;jettySize=auto;html=1;exitX=1;exitY=0.5;exitDx=0;exitDy=0;entryX=1;entryY=0.5;entryDx=0;entryDy=0;" edge="1" parent="1" source="IY9N73KVvrXHZeJEsMXp-71" target="IY9N73KVvrXHZeJEsMXp-70">
          <mxGeometry relative="1" as="geometry" />
        </mxCell>
        <mxCell id="IY9N73KVvrXHZeJEsMXp-71" value="bool&lt;b&gt; AddWoundSeverity&lt;/b&gt;" style="rounded=0;whiteSpace=wrap;html=1;" vertex="1" parent="1">
          <mxGeometry x="2260.54" y="360" width="149.46" height="30" as="geometry" />
        </mxCell>
        <mxCell id="IY9N73KVvrXHZeJEsMXp-95" style="edgeStyle=orthogonalEdgeStyle;rounded=0;orthogonalLoop=1;jettySize=auto;html=1;exitX=1;exitY=0.5;exitDx=0;exitDy=0;entryX=1;entryY=0.5;entryDx=0;entryDy=0;" edge="1" parent="1" source="IY9N73KVvrXHZeJEsMXp-72" target="IY9N73KVvrXHZeJEsMXp-70">
          <mxGeometry relative="1" as="geometry" />
        </mxCell>
        <mxCell id="IY9N73KVvrXHZeJEsMXp-72" value="bool&lt;b&gt; SetWoundSeverity&lt;/b&gt;" style="rounded=0;whiteSpace=wrap;html=1;" vertex="1" parent="1">
          <mxGeometry x="2260.54" y="400" width="149.46" height="30" as="geometry" />
        </mxCell>
        <mxCell id="IY9N73KVvrXHZeJEsMXp-74" value="&lt;font style=&quot;font-size: 14px;&quot;&gt;&lt;span style=&quot;font-weight: normal;&quot;&gt;const&lt;/span&gt; WoundContainerId&lt;/font&gt;" style="rounded=0;whiteSpace=wrap;html=1;fontStyle=1" vertex="1" parent="1">
          <mxGeometry x="2480" y="181" width="170" height="29" as="geometry" />
        </mxCell>
        <mxCell id="IY9N73KVvrXHZeJEsMXp-76" value="Wound Container" style="rounded=0;whiteSpace=wrap;html=1;fillColor=#f5f5f5;fontColor=#333333;strokeColor=#666666;" vertex="1" parent="1">
          <mxGeometry x="1990" y="200" width="110" height="30" as="geometry" />
        </mxCell>
        <mxCell id="IY9N73KVvrXHZeJEsMXp-82" style="edgeStyle=orthogonalEdgeStyle;rounded=0;orthogonalLoop=1;jettySize=auto;html=1;exitX=0;exitY=0.5;exitDx=0;exitDy=0;entryX=1;entryY=0.5;entryDx=0;entryDy=0;" edge="1" parent="1" source="IY9N73KVvrXHZeJEsMXp-77" target="IY9N73KVvrXHZeJEsMXp-76">
          <mxGeometry relative="1" as="geometry">
            <Array as="points">
              <mxPoint x="2280" y="102" />
              <mxPoint x="2280" y="80" />
              <mxPoint x="2140" y="80" />
              <mxPoint x="2140" y="215" />
            </Array>
          </mxGeometry>
        </mxCell>
        <mxCell id="IY9N73KVvrXHZeJEsMXp-83" value="EnsureContainer /&lt;br&gt;Remove Entity" style="edgeLabel;html=1;align=center;verticalAlign=middle;resizable=0;points=[];" vertex="1" connectable="0" parent="IY9N73KVvrXHZeJEsMXp-82">
          <mxGeometry x="-0.1774" y="-2" relative="1" as="geometry">
            <mxPoint x="105" y="24" as="offset" />
          </mxGeometry>
        </mxCell>
        <mxCell id="IY9N73KVvrXHZeJEsMXp-77" value="SharedContainerSystem" style="rounded=0;whiteSpace=wrap;html=1;fillColor=#f5f5f5;fontColor=#333333;strokeColor=#666666;" vertex="1" parent="1">
          <mxGeometry x="2410" y="81.97" width="150" height="40" as="geometry" />
        </mxCell>
        <mxCell id="IY9N73KVvrXHZeJEsMXp-84" value="bool&lt;b&gt; DamageWoundableIntegrity&lt;/b&gt;" style="rounded=0;whiteSpace=wrap;html=1;" vertex="1" parent="1">
          <mxGeometry x="2486" y="240" width="204" height="30" as="geometry" />
        </mxCell>
        <mxCell id="IY9N73KVvrXHZeJEsMXp-86" value="WoundAddedEvent" style="rounded=0;whiteSpace=wrap;html=1;fillColor=#dae8fc;strokeColor=#6c8ebf;" vertex="1" parent="1">
          <mxGeometry x="1909" y="450" width="210" height="29" as="geometry" />
        </mxCell>
        <mxCell id="IY9N73KVvrXHZeJEsMXp-87" style="edgeStyle=orthogonalEdgeStyle;rounded=0;orthogonalLoop=1;jettySize=auto;html=1;exitX=0;exitY=0.5;exitDx=0;exitDy=0;entryX=1;entryY=0.5;entryDx=0;entryDy=0;fillColor=#dae8fc;strokeColor=#6c8ebf;" edge="1" parent="1" source="IY9N73KVvrXHZeJEsMXp-68" target="IY9N73KVvrXHZeJEsMXp-86">
          <mxGeometry relative="1" as="geometry">
            <Array as="points">
              <mxPoint x="2160" y="255" />
              <mxPoint x="2160" y="464" />
            </Array>
          </mxGeometry>
        </mxCell>
        <mxCell id="IY9N73KVvrXHZeJEsMXp-88" value="FixedPoint2 &lt;b style=&quot;font-size: 10px;&quot;&gt;Integrity&lt;/b&gt;" style="rounded=0;whiteSpace=wrap;html=1;fontSize=10;" vertex="1" parent="1">
          <mxGeometry x="1990" y="239" width="110" height="20" as="geometry" />
        </mxCell>
        <mxCell id="IY9N73KVvrXHZeJEsMXp-89" value="FixedPoint2 &lt;b&gt;Max&lt;/b&gt;&lt;b style=&quot;font-size: 10px;&quot;&gt;Integrity&lt;/b&gt;" style="rounded=0;whiteSpace=wrap;html=1;fontSize=10;" vertex="1" parent="1">
          <mxGeometry x="1970" y="270" width="130" height="20" as="geometry" />
        </mxCell>
        <mxCell id="IY9N73KVvrXHZeJEsMXp-90" value="FixedPoint2 &lt;b style=&quot;font-size: 10px;&quot;&gt;Health&lt;/b&gt;" style="rounded=0;whiteSpace=wrap;html=1;fontSize=10;" vertex="1" parent="1">
          <mxGeometry x="1990" y="300" width="110" height="20" as="geometry" />
        </mxCell>
        <mxCell id="IY9N73KVvrXHZeJEsMXp-91" value="FixedPoint2 &lt;b style=&quot;font-size: 10px;&quot;&gt;HealthCap&lt;/b&gt;" style="rounded=0;whiteSpace=wrap;html=1;fontSize=10;" vertex="1" parent="1">
          <mxGeometry x="1980" y="330" width="120" height="20" as="geometry" />
        </mxCell>
        <mxCell id="IY9N73KVvrXHZeJEsMXp-107" style="edgeStyle=orthogonalEdgeStyle;rounded=0;orthogonalLoop=1;jettySize=auto;html=1;exitX=1;exitY=0.5;exitDx=0;exitDy=0;entryX=0;entryY=0.5;entryDx=0;entryDy=0;" edge="1" parent="1" source="IY9N73KVvrXHZeJEsMXp-97" target="IY9N73KVvrXHZeJEsMXp-104">
          <mxGeometry relative="1" as="geometry" />
        </mxCell>
        <mxCell id="IY9N73KVvrXHZeJEsMXp-108" style="edgeStyle=orthogonalEdgeStyle;rounded=0;orthogonalLoop=1;jettySize=auto;html=1;exitX=0;exitY=0.5;exitDx=0;exitDy=0;entryX=0;entryY=0.75;entryDx=0;entryDy=0;" edge="1" parent="1" source="IY9N73KVvrXHZeJEsMXp-97" target="IY9N73KVvrXHZeJEsMXp-68">
          <mxGeometry relative="1" as="geometry">
            <Array as="points">
              <mxPoint x="2210" y="455" />
              <mxPoint x="2210" y="263" />
            </Array>
          </mxGeometry>
        </mxCell>
        <mxCell id="IY9N73KVvrXHZeJEsMXp-110" style="edgeStyle=orthogonalEdgeStyle;rounded=0;orthogonalLoop=1;jettySize=auto;html=1;exitX=1;exitY=0.5;exitDx=0;exitDy=0;entryX=0;entryY=0.5;entryDx=0;entryDy=0;" edge="1" parent="1" source="IY9N73KVvrXHZeJEsMXp-97" target="IY9N73KVvrXHZeJEsMXp-109">
          <mxGeometry relative="1" as="geometry" />
        </mxCell>
        <mxCell id="IY9N73KVvrXHZeJEsMXp-97" value="bool&lt;b&gt; ApplyTraumaToPart&lt;/b&gt;" style="rounded=0;whiteSpace=wrap;html=1;" vertex="1" parent="1">
          <mxGeometry x="2260.54" y="440" width="159.46" height="30" as="geometry" />
        </mxCell>
        <mxCell id="IY9N73KVvrXHZeJEsMXp-99" style="edgeStyle=orthogonalEdgeStyle;rounded=0;orthogonalLoop=1;jettySize=auto;html=1;exitX=0.5;exitY=0;exitDx=0;exitDy=0;entryX=0.5;entryY=1;entryDx=0;entryDy=0;" edge="1" parent="1" source="IY9N73KVvrXHZeJEsMXp-98" target="IY9N73KVvrXHZeJEsMXp-97">
          <mxGeometry relative="1" as="geometry" />
        </mxCell>
        <mxCell id="IY9N73KVvrXHZeJEsMXp-98" value="&lt;b&gt;TryApplyTrauma&lt;/b&gt;" style="rounded=0;whiteSpace=wrap;html=1;" vertex="1" parent="1">
          <mxGeometry x="2260.54" y="490" width="119.46" height="30" as="geometry" />
        </mxCell>
        <mxCell id="IY9N73KVvrXHZeJEsMXp-105" style="edgeStyle=orthogonalEdgeStyle;rounded=0;orthogonalLoop=1;jettySize=auto;html=1;exitX=0.5;exitY=0;exitDx=0;exitDy=0;entryX=0.5;entryY=1;entryDx=0;entryDy=0;" edge="1" parent="1" source="IY9N73KVvrXHZeJEsMXp-104" target="IY9N73KVvrXHZeJEsMXp-84">
          <mxGeometry relative="1" as="geometry" />
        </mxCell>
        <mxCell id="IY9N73KVvrXHZeJEsMXp-104" value="bool&lt;b&gt; ApplyRawWoundDamage&lt;/b&gt;" style="rounded=0;whiteSpace=wrap;html=1;" vertex="1" parent="1">
          <mxGeometry x="2486" y="290" width="204" height="30" as="geometry" />
        </mxCell>
        <mxCell id="IY9N73KVvrXHZeJEsMXp-109" value="bool&lt;b&gt; TryChooseWound&lt;/b&gt;" style="rounded=0;whiteSpace=wrap;html=1;" vertex="1" parent="1">
          <mxGeometry x="2480" y="440" width="140" height="30" as="geometry" />
        </mxCell>
      </root>
    </mxGraphModel>
  </diagram>
</mxfile>
